<svg width="48" height="48" viewBox="0 0 48 48" fill="none" xmlns="http://www.w3.org/2000/svg">
<path d="M23.8574 5.99658C21.9434 5.99658 20.0514 7.35657 19.4814 9.18457L10.4814 37.9966H7.98145C6.87745 37.9966 5.98145 38.8926 5.98145 39.9966C5.98145 41.1006 6.87745 41.9966 7.98145 41.9966H39.9814C41.0854 41.9966 41.9814 41.1006 41.9814 39.9966C41.9814 38.8926 41.0854 37.9966 39.9814 37.9966H37.4814L28.4814 9.18457C27.9114 7.35657 26.0195 5.99658 24.1055 5.99658H23.8574ZM23.8574 9.99658H24.1055C24.2715 9.99658 24.5575 10.2146 24.6055 10.3726L27.6055 19.9966H20.3574L23.3574 10.3726C23.4054 10.2146 23.6934 9.99658 23.8574 9.99658ZM19.1055 23.9966H28.8574L30.1055 27.9966H17.8574L19.1055 23.9966ZM16.6055 31.9966H31.3574L33.2314 37.9966H14.7314L16.6055 31.9966Z" fill="#D3D3D3"/>
</svg>
