<svg width="32" height="32" viewBox="0 0 32 32" fill="none" xmlns="http://www.w3.org/2000/svg">
<g clip-path="url(#clip0_3007_14389)">
<path d="M15.3022 15.4909L16.097 16.4177L12.9385 20.0979C12.85 20.2013 12.7827 20.3212 12.7405 20.4507C12.6983 20.5801 12.682 20.7166 12.6926 20.8524C12.7032 20.9881 12.7404 21.1204 12.8022 21.2418C12.864 21.3631 12.9491 21.4711 13.0527 21.5596C13.1562 21.6481 13.2762 21.7153 13.4058 21.7575C13.5353 21.7997 13.6719 21.8159 13.8078 21.8053C13.9437 21.7947 14.0761 21.7575 14.1975 21.6958C14.319 21.6341 14.4271 21.549 14.5157 21.4456L18.251 17.0915C18.4117 16.9037 18.5001 16.6648 18.5001 16.4177C18.5001 16.1706 18.4117 15.9316 18.251 15.7438L14.5157 11.3897C14.4271 11.2863 14.319 11.2013 14.1975 11.1395C14.0761 11.0778 13.9437 11.0406 13.8078 11.03C13.6719 11.0194 13.5353 11.0357 13.4058 11.0778C13.2762 11.12 13.1562 11.1872 13.0527 11.2757C12.9491 11.3642 12.864 11.4722 12.8022 11.5936C12.7404 11.7149 12.7032 11.8472 12.6926 11.983C12.682 12.1187 12.6983 12.2552 12.7405 12.3846C12.7827 12.5141 12.85 12.634 12.9385 12.7374L15.3022 15.4909Z" fill="#3A6959"/>
</g>
<defs>
<clipPath id="clip0_3007_14389">
<rect width="32" height="32" fill="white"/>
</clipPath>
</defs>
</svg>
