<svg width="32" height="32" viewBox="0 0 32 32" fill="none" xmlns="http://www.w3.org/2000/svg">
<g clip-path="url(#clip0_3007_14381)">
<g opacity="0.38">
<path d="M15.8645 17.3424L15.0697 16.4156L18.2282 12.7354C18.3167 12.6319 18.384 12.512 18.4262 12.3826C18.4684 12.2531 18.4847 12.1166 18.4741 11.9809C18.4635 11.8452 18.4262 11.7128 18.3645 11.5915C18.3027 11.4701 18.2176 11.3621 18.114 11.2737C18.0105 11.1852 17.8905 11.1179 17.7609 11.0758C17.6313 11.0336 17.4947 11.0173 17.3589 11.0279C17.223 11.0385 17.0906 11.0757 16.9691 11.1375C16.8477 11.1992 16.7396 11.2842 16.651 11.3877L12.9157 15.7418C12.7549 15.9295 12.6666 16.1685 12.6666 16.4156C12.6666 16.6627 12.7549 16.9017 12.9157 17.0894L16.651 21.4435C16.7396 21.547 16.8477 21.632 16.9691 21.6937C17.0906 21.7554 17.223 21.7927 17.3589 21.8033C17.4947 21.8138 17.6313 21.7976 17.7609 21.7554C17.8905 21.7133 18.0105 21.646 18.114 21.5575C18.2176 21.469 18.3027 21.361 18.3644 21.2397C18.4262 21.1184 18.4635 20.986 18.4741 20.8503C18.4847 20.7146 18.4684 20.5781 18.4262 20.4486C18.384 20.3192 18.3167 20.1993 18.2282 20.0958L15.8645 17.3424Z" fill="#3A6959"/>
</g>
</g>
<defs>
<clipPath id="clip0_3007_14381">
<rect width="32" height="32" fill="white"/>
</clipPath>
</defs>
</svg>
