<svg width="32" height="32" viewBox="0 0 32 32" fill="none" xmlns="http://www.w3.org/2000/svg">
<g clip-path="url(#clip0_3007_14390)">
<path d="M11.0459 8.44188C9.64753 8.42355 8.55503 9.51022 8.52003 10.9677C8.49253 12.1302 8.48919 13.6719 8.49419 15.5769C8.49669 16.6752 8.51919 20.7702 8.52003 20.9419C8.53253 22.3669 9.6442 23.4419 11.0459 23.4419C11.4559 23.4419 11.89 23.356 12.3484 23.0769C12.8684 22.761 14.045 21.9052 15.76 20.6035C15.8275 20.5519 19.0925 18.021 19.2234 17.921C19.9634 17.356 20.225 16.5685 20.1867 15.8902C20.1725 15.6344 20.1434 15.4077 20.0567 15.1344C19.9159 14.6919 19.6842 14.2994 19.3017 14.0152C18.8767 13.6994 15.8834 11.4194 15.8375 11.3844C14.0517 10.026 12.9067 9.19103 12.3225 8.80687C11.8959 8.5252 11.5409 8.44105 11.0725 8.44188C11.0459 8.44188 11.0609 8.44188 11.0459 8.44188ZM22.6609 8.44188C22.2009 8.44188 21.8275 8.81521 21.8275 9.27521V22.6085C21.8275 23.0685 22.2009 23.4419 22.6609 23.4419C23.1209 23.4419 23.4942 23.0685 23.4942 22.6085V9.27521C23.4942 8.81521 23.1209 8.44188 22.6609 8.44188ZM11.02 10.1085C11.0559 10.1085 11.0425 10.1085 11.0725 10.1085C11.2442 10.1085 11.3134 10.1227 11.4109 10.1869C11.95 10.5419 13.0742 11.3827 14.8225 12.7127C14.8675 12.7477 17.8767 15.0452 18.3117 15.3685C18.4534 15.4744 18.53 15.7069 18.5459 15.9935C18.5559 16.1652 18.4575 16.4285 18.2075 16.6185C18.0734 16.721 14.8109 19.2244 14.7442 19.2752C13.0909 20.5302 11.9109 21.3727 11.4625 21.6452C11.2967 21.746 11.175 21.7752 11.0459 21.7752C10.5492 21.7752 10.1909 21.4419 10.1867 20.9419C10.1859 20.7694 10.1634 16.671 10.1609 15.5769C10.1559 13.6852 10.16 12.1385 10.1867 10.9936C10.2 10.4361 10.5492 10.1019 11.02 10.1085Z" fill="#3A6959"/>
</g>
<defs>
<clipPath id="clip0_3007_14390">
<rect width="32" height="32" fill="white"/>
</clipPath>
</defs>
</svg>
