<svg width="33" height="33" viewBox="0 0 33 33" fill="none" xmlns="http://www.w3.org/2000/svg">
<g clip-path="url(#clip0_3010_15078)">
<g opacity="0.38">
<path d="M21.4405 8.94182C22.8389 8.92348 23.9314 10.0102 23.9664 11.4676C23.9939 12.6301 23.9972 14.1718 23.9922 16.0768C23.9897 17.1751 23.9672 21.2701 23.9664 21.4418C23.9539 22.8668 22.8422 23.9418 21.4405 23.9418C21.0305 23.9418 20.5964 23.8559 20.138 23.5768C19.618 23.2609 18.4414 22.4051 16.7264 21.1034C16.6589 21.0518 13.3939 18.5209 13.263 18.4209C12.523 17.8559 12.2614 17.0684 12.2997 16.3901C12.3139 16.1343 12.343 15.9076 12.4297 15.6343C12.5705 15.1918 12.8022 14.7993 13.1847 14.5151C13.6097 14.1993 16.603 11.9193 16.6489 11.8843C18.4347 10.526 19.5797 9.69097 20.1639 9.30681C20.5905 9.02514 20.9455 8.94098 21.4139 8.94182C21.4405 8.94182 21.4255 8.94182 21.4405 8.94182ZM9.82552 8.94182C10.2855 8.94182 10.6589 9.31515 10.6589 9.77515V23.1084C10.6589 23.5684 10.2855 23.9418 9.82552 23.9418C9.36552 23.9418 8.99219 23.5684 8.99219 23.1084V9.77515C8.99219 9.31515 9.36552 8.94182 9.82552 8.94182ZM21.4664 10.6085C21.4305 10.6085 21.4439 10.6085 21.4139 10.6085C21.2422 10.6085 21.173 10.6226 21.0755 10.6868C20.5364 11.0418 19.4122 11.8826 17.6639 13.2126C17.6189 13.2476 14.6097 15.5451 14.1747 15.8685C14.033 15.9743 13.9564 16.2068 13.9405 16.4935C13.9305 16.6651 14.0289 16.9285 14.2789 17.1185C14.413 17.221 17.6755 19.7243 17.7422 19.7751C19.3955 21.0301 20.5755 21.8726 21.0239 22.1451C21.1897 22.2459 21.3114 22.2751 21.4405 22.2751C21.9372 22.2751 22.2955 21.9418 22.2997 21.4418C22.3005 21.2693 22.323 17.171 22.3255 16.0768C22.3305 14.1851 22.3264 12.6385 22.2997 11.4935C22.2864 10.936 21.9372 10.6018 21.4664 10.6085Z" fill="#3A6959"/>
</g>
</g>
<defs>
<clipPath id="clip0_3010_15078">
<rect width="32" height="32" fill="white" transform="translate(0.5 0.5)"/>
</clipPath>
</defs>
</svg>
