<svg width="16" height="16" viewBox="0 0 16 16" fill="none" xmlns="http://www.w3.org/2000/svg">
<path d="M6.92607 8.10847L7.6675 8.74431L10.6117 6.21757C10.6945 6.14672 10.7904 6.09287 10.8939 6.05911C10.9975 6.02536 11.1067 6.01235 11.2153 6.02082C11.3239 6.0293 11.4297 6.05911 11.5268 6.10853C11.6239 6.15795 11.7103 6.22603 11.7811 6.30888C11.8518 6.39172 11.9056 6.48771 11.9394 6.59137C11.9731 6.69502 11.9861 6.80431 11.9776 6.91299C11.9692 7.02167 11.9394 7.12762 11.89 7.22478C11.8406 7.32195 11.7726 7.40843 11.6898 7.47928L8.20658 10.4675C8.05635 10.5961 7.86518 10.6668 7.6675 10.6668C7.46982 10.6668 7.27865 10.5961 7.12843 10.4675L3.64517 7.47928C3.5624 7.40843 3.49438 7.32195 3.445 7.22478C3.39562 7.12762 3.36584 7.02167 3.35737 6.91299C3.3489 6.80431 3.3619 6.69502 3.39563 6.59137C3.42936 6.48771 3.48315 6.39172 3.55395 6.30888C3.62474 6.22603 3.71114 6.15795 3.80822 6.10853C3.9053 6.05911 4.01115 6.0293 4.11974 6.02083C4.22832 6.01235 4.33752 6.02536 4.44108 6.05911C4.54464 6.09287 4.64055 6.14672 4.72332 6.21757L6.92607 8.10847Z" fill="white"/>
</svg>
