<svg width="16" height="16" viewBox="0 0 16 16" fill="none" xmlns="http://www.w3.org/2000/svg">
<path d="M6.92595 8.10847L7.66738 8.74431L10.6116 6.21757C10.6943 6.14672 10.7902 6.09287 10.8938 6.05911C10.9974 6.02536 11.1066 6.01235 11.2151 6.02082C11.3237 6.0293 11.4296 6.05911 11.5267 6.10853C11.6237 6.15795 11.7101 6.22603 11.7809 6.30888C11.8517 6.39172 11.9055 6.48771 11.9393 6.59137C11.973 6.69502 11.986 6.80431 11.9775 6.91299C11.969 7.02167 11.9393 7.12762 11.8899 7.22478C11.8405 7.32195 11.7725 7.40843 11.6897 7.47928L8.20645 10.4675C8.05623 10.5961 7.86506 10.6668 7.66738 10.6668C7.4697 10.6668 7.27853 10.5961 7.1283 10.4675L3.64505 7.47928C3.56228 7.40843 3.49426 7.32195 3.44488 7.22478C3.3955 7.12762 3.36572 7.02167 3.35725 6.91299C3.34878 6.80431 3.36178 6.69502 3.39551 6.59137C3.42923 6.48771 3.48303 6.39172 3.55382 6.30888C3.62462 6.22603 3.71101 6.15795 3.80809 6.10853C3.90517 6.05911 4.01103 6.0293 4.11962 6.02083C4.2282 6.01235 4.33739 6.02536 4.44096 6.05911C4.54452 6.09287 4.64043 6.14672 4.7232 6.21757L6.92595 8.10847Z" fill="white"/>
</svg>
