<svg width="20" height="20" viewBox="0 0 20 20" fill="none" xmlns="http://www.w3.org/2000/svg">
<path d="M14.159 17.4923C15.9998 17.4923 17.4923 15.9998 17.4923 14.159V5.82564C17.4923 3.98481 15.9998 2.49231 14.159 2.49231H5.82564C3.98481 2.49231 2.49231 3.98481 2.49231 5.82564V14.159C2.49231 15.9998 3.98481 17.4923 5.82564 17.4923H14.159ZM14.159 15.8256H5.82564C4.90481 15.8256 4.15898 15.0798 4.15898 14.159V5.82564C4.15898 4.90481 4.90481 4.15898 5.82564 4.15898H14.159C15.0798 4.15898 15.8256 4.90481 15.8256 5.82564V14.159C15.8256 15.0798 15.0798 15.8256 14.159 15.8256ZM7.49231 13.3256C7.70564 13.3256 7.92814 13.254 8.09147 13.0915L11.659 9.52397V12.4923H13.3256V7.49231C13.3256 7.03231 12.9523 6.65898 12.4923 6.65898H7.49231V8.32564H10.4607L6.89315 11.8931C6.56815 12.219 6.56815 12.7656 6.89315 13.0915C7.05648 13.254 7.27898 13.3256 7.49231 13.3256Z" fill="#9D9D9D"/>
</svg>
