<svg width="16" height="16" viewBox="0 0 16 16" fill="none" xmlns="http://www.w3.org/2000/svg">
<path d="M6.92607 8.10835L7.6675 8.74419L10.6117 6.21745C10.6945 6.14659 10.7904 6.09275 10.8939 6.05899C10.9975 6.02523 11.1067 6.01222 11.2153 6.0207C11.3239 6.02918 11.4297 6.05898 11.5268 6.10841C11.6239 6.15783 11.7103 6.22591 11.7811 6.30875C11.8518 6.3916 11.9056 6.48759 11.9394 6.59124C11.9731 6.6949 11.9861 6.80418 11.9776 6.91287C11.9692 7.02155 11.9394 7.1275 11.89 7.22466C11.8406 7.32182 11.7726 7.4083 11.6898 7.47916L8.20658 10.4674C8.05635 10.596 7.86518 10.6667 7.6675 10.6667C7.46982 10.6667 7.27865 10.596 7.12843 10.4674L3.64517 7.47916C3.5624 7.4083 3.49438 7.32182 3.445 7.22466C3.39562 7.1275 3.36584 7.02155 3.35737 6.91287C3.3489 6.80418 3.3619 6.6949 3.39563 6.59124C3.42936 6.48759 3.48315 6.3916 3.55395 6.30875C3.62474 6.22591 3.71114 6.15783 3.80822 6.10841C3.9053 6.05898 4.01115 6.02918 4.11974 6.0207C4.22832 6.01222 4.33752 6.02523 4.44108 6.05899C4.54464 6.09275 4.64055 6.14659 4.72332 6.21745L6.92607 8.10835Z" fill="white"/>
</svg>
