<svg width="20" height="20" viewBox="0 0 20 20" fill="none" xmlns="http://www.w3.org/2000/svg">
<path d="M16.2528 15.0101L16.9804 14.8282V14.8282L16.2528 15.0101ZM16.0862 14.3434L15.3586 14.5253L15.3586 14.5253L16.0862 14.3434ZM3.91452 14.3434L3.18691 14.1615L3.91452 14.3434ZM3.74785 15.0101L4.47546 15.192H4.47546L3.74785 15.0101ZM4.49487 13.3985L4.20437 12.7071H4.20437L4.49487 13.3985ZM4.1506 13.6673L4.75095 14.1169H4.75095L4.1506 13.6673ZM15.8501 13.6673L15.2497 14.1169V14.1169L15.8501 13.6673ZM15.5058 13.3985L15.7963 12.7071H15.7963L15.5058 13.3985ZM16.0315 16.5462L15.6429 15.9048L16.0315 16.5462ZM16.3959 16.0796L17.1124 16.301V16.301L16.3959 16.0796ZM3.96917 16.5462L4.35781 15.9048H4.35781L3.96917 16.5462ZM3.60482 16.0796L4.32137 15.8581H4.32137L3.60482 16.0796ZM9.40406 2.79829L9.06865 2.12747V2.12747L9.40406 2.79829ZM4.52625 5.2372L4.86166 5.90802L4.52625 5.2372ZM3.92996 7.02605L3.25914 7.36146H3.25914L3.92996 7.02605ZM4.07488 7.31589L4.7457 6.98048L4.7457 6.98048L4.07488 7.31589ZM15.9258 7.31589L15.255 6.98048L15.255 6.98048L15.9258 7.31589ZM16.0707 7.02605L15.3999 6.69064V6.69064L16.0707 7.02605ZM15.4744 5.2372L15.8099 4.56638V4.56638L15.4744 5.2372ZM10.5966 2.79829L10.932 2.12747L10.932 2.12747L10.5966 2.79829ZM16.3823 6.19983L17.1323 6.19414V6.19414L16.3823 6.19983ZM16.2194 5.71124L15.616 6.15667L15.616 6.15667L16.2194 5.71124ZM3.78127 5.71124L3.17787 5.2658L3.17787 5.2658L3.78127 5.71124ZM3.6184 6.19983L2.86842 6.19414V6.19414L3.6184 6.19983ZM15.7729 7.48876L15.5283 6.77975L15.5283 6.77975L15.7729 7.48876ZM15.8507 7.44065L16.3755 7.97647L16.3755 7.97646L15.8507 7.44065ZM4.22783 7.48876L4.47239 6.77975H4.47239L4.22783 7.48876ZM4.14999 7.44065L3.6252 7.97647L3.6252 7.97647L4.14999 7.44065ZM9.84668 2.6128L9.70838 1.87566L9.84668 2.6128ZM10.154 2.6128L10.2923 1.87566L10.154 2.6128ZM5.08368 12.5001C5.08368 12.9144 5.41946 13.2501 5.83368 13.2501C6.24789 13.2501 6.58368 12.9144 6.58368 12.5001H5.08368ZM6.58368 7.50015C6.58368 7.08594 6.24789 6.75015 5.83368 6.75015C5.41946 6.75015 5.08368 7.08594 5.08368 7.50015H6.58368ZM9.25034 12.5001C9.25034 12.9144 9.58613 13.2501 10.0003 13.2501C10.4146 13.2501 10.7503 12.9144 10.7503 12.5001H9.25034ZM10.7503 8.33348C10.7503 7.91927 10.4146 7.58348 10.0003 7.58348C9.58613 7.58348 9.25034 7.91927 9.25034 8.33348H10.7503ZM13.417 12.5001C13.417 12.9144 13.7528 13.2501 14.167 13.2501C14.5812 13.2501 14.917 12.9144 14.917 12.5001H13.417ZM14.917 8.33348C14.917 7.91927 14.5812 7.58348 14.167 7.58348C13.7528 7.58348 13.417 7.91927 13.417 8.33348H14.917ZM5.04138 17.4168H14.9593V15.9168H5.04138V17.4168ZM16.9804 14.8282L16.8138 14.1615L15.3586 14.5253L15.5252 15.192L16.9804 14.8282ZM14.7926 12.5835H5.20804V14.0835H14.7926V12.5835ZM3.18691 14.1615L3.02025 14.8282L4.47546 15.192L4.64213 14.5253L3.18691 14.1615ZM5.20804 12.5835C4.90546 12.5835 4.5326 12.5692 4.20437 12.7071L4.78538 14.09C4.7587 14.1012 4.75436 14.0947 4.82405 14.0897C4.90317 14.0839 5.01122 14.0835 5.20804 14.0835V12.5835ZM4.64213 14.5253C4.68986 14.3344 4.71651 14.2297 4.74125 14.1543C4.76305 14.0879 4.7683 14.0937 4.75095 14.1169L3.55025 13.2178C3.33686 13.5028 3.2603 13.868 3.18691 14.1615L4.64213 14.5253ZM4.20437 12.7071C3.9448 12.8161 3.719 12.9924 3.55025 13.2178L4.75095 14.1169C4.75983 14.105 4.77172 14.0957 4.78538 14.09L4.20437 12.7071ZM16.8138 14.1615C16.7404 13.868 16.6638 13.5028 16.4504 13.2178L15.2497 14.1169C15.2324 14.0937 15.2376 14.0879 15.2594 14.1543C15.2842 14.2297 15.3108 14.3344 15.3586 14.5253L16.8138 14.1615ZM14.7926 14.0835C14.9895 14.0835 15.0975 14.0839 15.1766 14.0897C15.2463 14.0947 15.242 14.1012 15.2153 14.09L15.7963 12.7071C15.4681 12.5692 15.0952 12.5835 14.7926 12.5835V14.0835ZM16.4504 13.2178C16.2817 12.9924 16.0559 12.8161 15.7963 12.7071L15.2153 14.09C15.229 14.0957 15.2409 14.105 15.2497 14.1169L16.4504 13.2178ZM14.9593 17.4168C15.2366 17.4168 15.4939 17.4175 15.7051 17.3988C15.9219 17.3796 16.1775 17.3347 16.4202 17.1877L15.6429 15.9048C15.6865 15.8783 15.697 15.8937 15.573 15.9047C15.4433 15.9161 15.2641 15.9168 14.9593 15.9168V17.4168ZM15.5252 15.192C15.5992 15.4877 15.6419 15.6617 15.6623 15.7903C15.6817 15.9133 15.6643 15.9068 15.6793 15.8581L17.1124 16.301C17.1962 16.0299 17.1778 15.7711 17.1439 15.5561C17.1108 15.3467 17.0477 15.0972 16.9804 14.8282L15.5252 15.192ZM16.4202 17.1877C16.7517 16.9868 16.998 16.6713 17.1124 16.301L15.6793 15.8581C15.6733 15.8776 15.6603 15.8942 15.6429 15.9048L16.4202 17.1877ZM5.04138 15.9168C4.73657 15.9168 4.55735 15.9161 4.42773 15.9047C4.3037 15.8937 4.3142 15.8783 4.35781 15.9048L3.58052 17.1877C3.8232 17.3347 4.07875 17.3796 4.29554 17.3988C4.50674 17.4175 4.76409 17.4168 5.04138 17.4168V15.9168ZM3.02025 14.8282C2.953 15.0972 2.88991 15.3467 2.85681 15.5561C2.82284 15.7711 2.80447 16.0299 2.88826 16.301L4.32137 15.8581C4.33643 15.9068 4.31899 15.9133 4.33843 15.7903C4.35874 15.6618 4.40153 15.4877 4.47546 15.192L3.02025 14.8282ZM4.35781 15.9048C4.34036 15.8942 4.3274 15.8776 4.32137 15.8581L2.88826 16.301C3.00271 16.6713 3.24902 16.9868 3.58052 17.1877L4.35781 15.9048ZM4.37302 8.25015H15.6277V6.75015H4.37302V8.25015ZM9.06865 2.12747L4.19083 4.56638L4.86166 5.90802L9.73947 3.46911L9.06865 2.12747ZM3.25914 7.36146L3.40406 7.6513L4.7457 6.98048L4.60078 6.69064L3.25914 7.36146ZM16.5966 7.6513L16.7415 7.36146L15.3999 6.69064L15.255 6.98048L16.5966 7.6513ZM15.8099 4.56638L10.932 2.12747L10.2612 3.46911L15.139 5.90802L15.8099 4.56638ZM16.7415 7.36146C16.8404 7.16381 16.9352 6.97549 17.0013 6.8111C17.0706 6.63855 17.1341 6.43261 17.1323 6.19414L15.6323 6.20553C15.632 6.16712 15.6441 6.16557 15.6094 6.25176C15.5715 6.3461 15.5098 6.47085 15.3999 6.69064L16.7415 7.36146ZM15.139 5.90802C15.3588 6.01791 15.4831 6.08068 15.57 6.13341C15.6494 6.18157 15.6388 6.18757 15.616 6.15667L16.8228 5.2658C16.6812 5.07394 16.5068 4.94728 16.3478 4.85085C16.1963 4.75897 16.0075 4.6652 15.8099 4.56638L15.139 5.90802ZM17.1323 6.19414C17.1297 5.85978 17.0214 5.53481 16.8228 5.2658L15.616 6.15667C15.6265 6.17083 15.6322 6.18793 15.6323 6.20553L17.1323 6.19414ZM4.19083 4.56638C3.99318 4.6652 3.80434 4.75897 3.65285 4.85085C3.49385 4.94728 3.3195 5.07394 3.17787 5.2658L4.38467 6.15667C4.36186 6.18757 4.35127 6.18157 4.4307 6.13341C4.51763 6.08068 4.64187 6.01791 4.86166 5.90802L4.19083 4.56638ZM4.60078 6.69064C4.49089 6.47085 4.42916 6.3461 4.39125 6.25176C4.35661 6.16557 4.36867 6.16712 4.36838 6.20553L2.86842 6.19414C2.86661 6.43261 2.93009 6.63855 2.99944 6.8111C3.0655 6.97549 3.16032 7.16381 3.25914 7.36146L4.60078 6.69064ZM3.17787 5.2658C2.97928 5.53481 2.87096 5.85978 2.86842 6.19414L4.36838 6.20553C4.36851 6.18793 4.37421 6.17083 4.38467 6.15667L3.17787 5.2658ZM15.6277 8.25015C15.6481 8.25015 15.8372 8.25994 16.0174 8.19777L15.5283 6.77975C15.5989 6.75541 15.6545 6.7511 15.6692 6.75018C15.6757 6.74978 15.677 6.74992 15.6681 6.75003C15.6591 6.75014 15.6477 6.75015 15.6277 6.75015V8.25015ZM15.255 6.98048C15.246 6.99838 15.2409 7.00856 15.2368 7.01657C15.2327 7.02446 15.2332 7.02325 15.2364 7.01767C15.2438 7.00492 15.2726 6.95707 15.3259 6.90484L16.3755 7.97646C16.5117 7.84307 16.5875 7.66957 16.5966 7.6513L15.255 6.98048ZM16.0174 8.19777C16.1517 8.15145 16.274 8.07586 16.3755 7.97647L15.3259 6.90484C15.3833 6.84866 15.4524 6.80594 15.5283 6.77975L16.0174 8.19777ZM4.37302 6.75015C4.35301 6.75015 4.34162 6.75014 4.33261 6.75003C4.32373 6.74992 4.32502 6.74978 4.33145 6.75018C4.34616 6.7511 4.40182 6.75541 4.47239 6.77975L3.98328 8.19777C4.1635 8.25993 4.35261 8.25015 4.37302 8.25015V6.75015ZM3.40406 7.6513C3.41319 7.66956 3.489 7.84307 3.6252 7.97647L4.67478 6.90484C4.72811 6.95707 4.75686 7.00492 4.76426 7.01768C4.7675 7.02325 4.76795 7.02446 4.76388 7.01657C4.75975 7.00856 4.75465 6.99838 4.7457 6.98048L3.40406 7.6513ZM4.47239 6.77975C4.54829 6.80593 4.61742 6.84866 4.67478 6.90484L3.6252 7.97647C3.72669 8.07586 3.849 8.15145 3.98328 8.19777L4.47239 6.77975ZM9.73947 3.46911C9.85565 3.41102 9.91711 3.38056 9.96359 3.36034C10.0028 3.34326 10.0023 3.34668 9.98498 3.34994L9.70838 1.87566C9.46626 1.92109 9.2484 2.03759 9.06865 2.12747L9.73947 3.46911ZM10.932 2.12747C10.7523 2.03759 10.5344 1.92109 10.2923 1.87566L10.0157 3.34994C9.99836 3.34669 9.99785 3.34326 10.0371 3.36034C10.0836 3.38056 10.145 3.41102 10.2612 3.46911L10.932 2.12747ZM9.98498 3.34994C9.99513 3.34803 10.0056 3.34803 10.0157 3.34994L10.2923 1.87566C10.0993 1.83946 9.90134 1.83946 9.70838 1.87566L9.98498 3.34994ZM6.58368 12.5001V7.50015H5.08368V12.5001H6.58368ZM10.7503 12.5001V8.33348H9.25034V12.5001H10.7503ZM14.917 12.5001V8.33348H13.417V12.5001H14.917Z" fill="#9D9D9D"/>
</svg>
