<svg width="20" height="20" viewBox="0 0 20 20" fill="none" xmlns="http://www.w3.org/2000/svg">
<path d="M9.16577 2.49219C7.32486 2.49219 5.83244 3.98469 5.83244 5.82552H4.99911C3.15819 5.82552 1.66577 7.31802 1.66577 9.15885V14.1589C1.66577 15.9997 3.15819 17.4922 4.99911 17.4922H14.9991C16.84 17.4922 18.3324 15.9997 18.3324 14.1589V9.15885C18.3324 7.31802 16.84 5.82552 14.9991 5.82552H14.1658C14.1658 3.98469 12.6734 2.49219 10.8324 2.49219H9.16577ZM9.16577 4.15885H10.8324C11.7529 4.15885 12.4991 4.90469 12.4991 5.82552H7.49911C7.49911 4.90469 8.24527 4.15885 9.16577 4.15885ZM4.99911 7.49219H14.9991C15.9196 7.49219 16.6658 8.23802 16.6658 9.15885V9.39303L12.2126 10.8772C11.0168 11.2764 8.98144 11.2764 7.78561 10.8772L3.33244 9.39303V9.15885C3.33244 8.23802 4.07861 7.49219 4.99911 7.49219ZM3.33244 11.138L7.26477 12.4663C8.80269 12.9788 11.1955 12.9788 12.7334 12.4663L16.6658 11.138V14.1589C16.6658 15.0797 15.9196 15.8255 14.9991 15.8255H4.99911C4.07861 15.8255 3.33244 15.0797 3.33244 14.1589V11.138Z" fill="white"/>
</svg>
