<svg width="20" height="20" viewBox="0 0 20 20" fill="none" xmlns="http://www.w3.org/2000/svg">
<path d="M4.99899 3.35693C3.15815 3.35693 1.66565 4.84943 1.66565 6.69027V13.3569C1.66565 15.1978 3.15815 16.6903 4.99899 16.6903H14.999C16.8398 16.6903 18.3323 15.1978 18.3323 13.3569V6.69027C18.3323 4.84943 16.8398 3.35693 14.999 3.35693H4.99899ZM4.99899 5.0236H14.999C15.9198 5.0236 16.6657 5.76943 16.6657 6.69027V13.3569C16.6657 14.2778 15.9198 15.0236 14.999 15.0236H4.99899C4.07815 15.0236 3.33232 14.2778 3.33232 13.3569V6.69027C3.33232 5.76943 4.07815 5.0236 4.99899 5.0236ZM5.83232 7.5236C5.37232 7.5236 4.99899 7.89693 4.99899 8.35693C4.99899 8.81693 5.37232 9.19027 5.83232 9.19027C6.29232 9.19027 6.66566 8.81693 6.66566 8.35693C6.66566 7.89693 6.29232 7.5236 5.83232 7.5236ZM9.16566 7.5236C8.70566 7.5236 8.33233 7.89693 8.33233 8.35693C8.33233 8.81693 8.70566 9.19027 9.16566 9.19027H14.1657C14.6257 9.19027 14.999 8.81693 14.999 8.35693C14.999 7.89693 14.6257 7.5236 14.1657 7.5236H9.16566ZM5.83232 10.8569C5.37232 10.8569 4.99899 11.2303 4.99899 11.6903C4.99899 12.1503 5.37232 12.5236 5.83232 12.5236C6.29232 12.5236 6.66566 12.1503 6.66566 11.6903C6.66566 11.2303 6.29232 10.8569 5.83232 10.8569ZM9.16566 10.8569C8.70566 10.8569 8.33233 11.2303 8.33233 11.6903C8.33233 12.1503 8.70566 12.5236 9.16566 12.5236H14.1657C14.6257 12.5236 14.999 12.1503 14.999 11.6903C14.999 11.2303 14.6257 10.8569 14.1657 10.8569H9.16566Z" fill="#9D9D9D"/>
</svg>
