<svg width="20" height="20" viewBox="0 0 20 20" fill="none" xmlns="http://www.w3.org/2000/svg">
<path d="M3.31384 3.33154C2.85384 3.33154 2.48051 3.70463 2.48051 4.16488C2.48051 4.62513 2.85384 4.99821 3.31384 4.99821H16.6472C17.1072 4.99821 17.4805 4.62513 17.4805 4.16488C17.4805 3.70463 17.1072 3.33154 16.6472 3.33154H3.31384ZM3.31384 6.66488C1.93301 6.66488 0.813843 7.78413 0.813843 9.16488V14.1649C0.813843 15.5457 1.93301 16.6649 3.31384 16.6649H15.8138H16.6472C18.028 16.6649 19.1472 15.5457 19.1472 14.1649V9.16488C19.1472 7.78413 18.028 6.66488 16.6472 6.66488H3.31384ZM4.838 8.34071L15.1388 8.32588C15.4088 9.26738 16.4238 9.99821 17.4805 9.99821V13.3315C16.4238 13.3315 15.473 14.0132 15.1238 14.9999L4.82634 14.994C4.49634 14.0282 3.53717 13.3315 2.48051 13.3315V9.99821C3.53717 9.99821 4.48967 9.30654 4.838 8.34071ZM9.9805 9.16488C8.59966 9.16488 7.4805 10.284 7.4805 11.6649C7.4805 13.0457 8.59966 14.1649 9.9805 14.1649C11.3613 14.1649 12.4805 13.0457 12.4805 11.6649C12.4805 10.284 11.3613 9.16488 9.9805 9.16488ZM9.9805 10.8315C10.4405 10.8315 10.8138 11.2049 10.8138 11.6649C10.8138 12.1249 10.4405 12.4982 9.9805 12.4982C9.5205 12.4982 9.14716 12.1249 9.14716 11.6649C9.14716 11.2049 9.5205 10.8315 9.9805 10.8315Z" fill="#9D9D9D"/>
</svg>
