<svg width="20" height="20" viewBox="0 0 20 20" fill="none" xmlns="http://www.w3.org/2000/svg">
<path d="M6.65898 1.66577C6.19898 1.66577 5.82564 2.0391 5.82564 2.4991C3.98481 2.4991 2.49231 3.9916 2.49231 5.83244V14.1658C2.49231 16.0066 3.98481 17.4991 5.82564 17.4991H14.159C15.9998 17.4991 17.4923 16.0066 17.4923 14.1658V5.83244C17.4923 3.9916 15.9998 2.4991 14.159 2.4991C14.159 2.0391 13.7856 1.66577 13.3256 1.66577C12.8656 1.66577 12.4923 2.0391 12.4923 2.4991H9.99231H7.49231C7.49231 2.0391 7.11898 1.66577 6.65898 1.66577ZM5.82564 4.16577C5.82564 4.49244 5.82564 4.8541 5.82564 4.9991C5.82564 6.4066 7.07065 7.4991 8.55981 7.4991H11.4248C12.914 7.4991 14.159 6.4066 14.159 4.9991C14.159 4.8541 14.159 4.5141 14.159 4.16577C15.0798 4.16577 15.8256 4.9116 15.8256 5.83244V14.1658C15.8256 15.0866 15.0798 15.8324 14.159 15.8324H5.82564C4.90481 15.8324 4.15898 15.0866 4.15898 14.1658V5.83244C4.15898 4.9116 4.90481 4.16577 5.82564 4.16577ZM7.49231 4.16577H9.99231H12.4923C12.4923 4.5141 12.4923 4.8541 12.4923 4.9991C12.4923 5.43244 12.039 5.83244 11.4248 5.83244H8.55981C7.94565 5.83244 7.49231 5.43244 7.49231 4.9991C7.49231 4.8541 7.49231 4.49244 7.49231 4.16577ZM13.3256 8.33244C12.8656 8.33244 12.4923 8.70577 12.4923 9.16577V13.3324C12.4923 13.7924 12.8656 14.1658 13.3256 14.1658C13.7856 14.1658 14.159 13.7924 14.159 13.3324V9.16577C14.159 8.70577 13.7856 8.33244 13.3256 8.33244ZM9.99231 9.9991C9.53231 9.9991 9.15898 10.3724 9.15898 10.8324V13.3324C9.15898 13.7924 9.53231 14.1658 9.99231 14.1658C10.4523 14.1658 10.8256 13.7924 10.8256 13.3324V10.8324C10.8256 10.3724 10.4523 9.9991 9.99231 9.9991ZM6.65898 11.6658C6.19898 11.6658 5.82564 12.0391 5.82564 12.4991V13.3324C5.82564 13.7924 6.19898 14.1658 6.65898 14.1658C7.11898 14.1658 7.49231 13.7924 7.49231 13.3324V12.4991C7.49231 12.0391 7.11898 11.6658 6.65898 11.6658Z" fill="#9D9D9D"/>
</svg>
