<svg width="111" height="16" viewBox="0 0 111 16" fill="none" xmlns="http://www.w3.org/2000/svg">
<g clip-path="url(#clip0_3007_14640)">
<path d="M105.457 7.59503L110.787 14.4C110.855 14.4649 110.909 14.5426 110.946 14.6285C110.983 14.7144 111.002 14.8067 111.003 14.9C110.999 15.0977 110.917 15.2863 110.775 15.4261C110.633 15.5659 110.442 15.6462 110.241 15.65H108.183C108.064 15.6494 107.946 15.6239 107.838 15.575C107.73 15.5292 107.641 15.4502 107.584 15.35L103.523 10.06L99.4617 15.35C99.3923 15.4442 99.301 15.5205 99.1954 15.5727C99.0899 15.6249 98.9732 15.6514 98.8551 15.65H96.7966C96.655 15.65 96.5165 15.6091 96.3982 15.5325C96.2793 15.4584 96.1822 15.355 96.1164 15.2325C96.0496 15.1084 96.023 14.967 96.0403 14.8275C96.0479 14.6907 96.1004 14.5599 96.19 14.455L101.584 7.58503L96.5809 1.18502C96.4924 1.07928 96.4392 0.949181 96.4286 0.812524C96.4146 0.672343 96.441 0.531118 96.5048 0.405023C96.5714 0.283863 96.6684 0.181466 96.7865 0.107522C96.9058 0.030839 97.0451 -0.0099814 97.1875 -0.00997065H99.2409C99.3589 -0.0111744 99.4756 0.0154223 99.5811 0.067605C99.6866 0.119788 99.7779 0.196034 99.8475 0.290017L103.507 5.06753L107.188 0.290017C107.245 0.189863 107.334 0.110894 107.442 0.0650263C107.55 0.0164842 107.668 -0.00906485 107.787 -0.00997065H109.845C109.985 -0.011031 110.121 0.0299656 110.236 0.107522C110.35 0.185666 110.447 0.287123 110.518 0.405023C110.589 0.52875 110.619 0.671162 110.604 0.812524C110.592 0.953166 110.53 1.08512 110.429 1.18502L105.457 7.59503ZM87.1974 12.95C88.6848 12.95 89.8836 12.4809 90.794 11.5425C91.6755 10.6292 92.1155 9.45168 92.1138 8.01002C92.1121 6.56835 91.6646 5.38085 90.7711 4.44752C89.876 3.51752 88.6848 3.05169 87.1974 3.05003C85.7101 3.04836 84.5189 3.51418 83.6237 4.44752C82.7303 5.38085 82.2828 6.56835 82.2811 8.01002C82.2794 9.45168 82.7202 10.6292 83.6035 11.5425C84.5121 12.4809 85.7101 12.95 87.1974 12.95ZM87.1974 2.38568e-05C89.5664 2.38568e-05 91.5123 0.782527 93.0351 2.34753C94.4704 3.89056 95.2665 5.90731 95.2665 8.00002C95.2665 10.0927 94.4704 12.1095 93.0351 13.6525C91.5123 15.2175 89.5664 16 87.1974 16C84.8285 16 82.8868 15.2175 81.3724 13.6525C79.9372 12.1095 79.141 10.0927 79.141 8.00002C79.141 5.90731 79.9372 3.89056 81.3724 2.34753C82.8885 0.782527 84.8302 2.38568e-05 87.1974 2.38568e-05ZM73.3799 5.39753C73.4845 5.18501 73.5367 4.95116 73.5322 4.71502C73.5453 4.47513 73.5081 4.23515 73.423 4.01002C73.3764 3.83087 73.2786 3.66863 73.1413 3.54252C72.7741 3.18085 72.247 3.00002 71.56 3.00002H67.3163V6.32752H71.3773C72.4128 6.33502 73.0753 6.02253 73.3799 5.39753ZM71.7555 9.28002H67.3163V12.65H71.9281C72.7656 12.65 73.3799 12.5025 73.7682 12.2025C73.9394 12.063 74.0754 11.8864 74.1657 11.6864C74.2559 11.4865 74.298 11.2687 74.2885 11.05C74.2939 10.8238 74.2482 10.5993 74.1547 10.3926C74.0612 10.186 73.9222 10.0023 73.7479 9.85502C73.3139 9.47252 72.6514 9.28002 71.7555 9.28002ZM75.5017 7.57252C76.2277 8.04608 76.7933 8.72253 77.1261 9.51502C77.3279 10.0541 77.4252 10.6256 77.413 11.2C77.4414 12.1252 77.1476 13.0321 76.5804 13.77C75.9511 14.5225 75.0995 15.0634 74.1438 15.3175C73.3747 15.5634 72.5689 15.6792 71.7605 15.66H64.933C64.7327 15.655 64.5419 15.5743 64.4002 15.4347C64.2585 15.2952 64.1767 15.1073 64.1715 14.91V0.750024C64.1767 0.552707 64.2585 0.364875 64.4002 0.225305C64.5419 0.0857345 64.7327 0.00508574 64.933 2.38568e-05H71.3874C73.1489 2.38568e-05 74.5026 0.490861 75.4484 1.47253C75.8478 1.86459 76.1614 2.333 76.37 2.84893C76.5787 3.36486 76.6779 3.9174 76.6617 4.47253C76.6684 5.78586 76.2818 6.81919 75.5017 7.57252ZM61.3161 12.63C61.417 12.6279 61.5172 12.6466 61.6103 12.6849C61.7035 12.7233 61.7874 12.7803 61.8568 12.8525C61.9959 12.992 62.0742 13.1795 62.075 13.375V14.9125C62.0742 15.1081 61.9959 15.2955 61.8568 15.435C61.7879 15.508 61.7041 15.5658 61.611 15.6046C61.5178 15.6434 61.4173 15.6623 61.3161 15.66H51.8515C51.7521 15.6606 51.6536 15.6409 51.5624 15.6021C51.4711 15.5634 51.3889 15.5065 51.321 15.435C51.2488 15.3679 51.1912 15.2869 51.152 15.197C51.1127 15.1072 51.0925 15.0104 51.0926 14.9125V0.750024C51.0977 0.552707 51.1796 0.364875 51.3213 0.225305C51.463 0.0857345 51.6537 0.00508574 51.854 2.38568e-05H53.4784C53.5777 -7.48383e-05 53.676 0.019833 53.7672 0.0585261C53.8585 0.0972191 53.9407 0.153886 54.0089 0.22503C54.0811 0.292029 54.1385 0.373047 54.1774 0.462976C54.2163 0.552904 54.2358 0.649784 54.2348 0.747521V12.63H61.3161ZM40.4375 12.95C41.9248 12.95 43.1228 12.4809 44.0315 11.5425C44.9131 10.6292 45.3539 9.45168 45.3539 8.01002C45.3539 6.56835 44.9063 5.38085 44.0112 4.44752C43.1161 3.51752 41.9248 3.05169 40.4375 3.05003C38.9502 3.04836 37.7589 3.51418 36.8638 4.44752C35.9687 5.38085 35.5211 6.56835 35.5211 8.01002C35.5211 9.45168 35.9611 10.6292 36.841 11.5425C37.753 12.4809 38.9518 12.95 40.4375 12.95ZM40.4375 2.38568e-05C42.8064 2.38568e-05 44.7481 0.782527 46.2625 2.34753C47.6978 3.89056 48.4939 5.90731 48.4939 8.00002C48.4939 10.0927 47.6978 12.1095 46.2625 13.6525C44.7396 15.2175 42.798 16 40.4375 16C38.077 16 36.1311 15.2175 34.5998 13.6525C33.1645 12.1095 32.3684 10.0927 32.3684 8.00002C32.3684 5.90731 33.1645 3.89056 34.5998 2.34753C36.1244 0.782527 38.0703 2.38568e-05 40.4375 2.38568e-05ZM22.6325 12.95C24.1199 12.95 25.3187 12.4809 26.2291 11.5425C27.1089 10.6292 27.5489 9.45168 27.5489 8.01002C27.5489 6.56835 27.1013 5.38085 26.2062 4.44752C25.3128 3.51752 24.1215 3.05169 22.6325 3.05003C21.1435 3.04836 19.9523 3.51418 19.0588 4.44752C18.1654 5.38085 17.7178 6.56835 17.7162 8.01002C17.7145 9.45168 18.1544 10.6292 19.036 11.5425C19.9463 12.4809 21.1452 12.95 22.6325 12.95ZM22.6325 2.38568e-05C25.0014 2.38568e-05 26.9473 0.782527 28.4702 2.34753C29.9055 3.89056 30.7016 5.90731 30.7016 8.00002C30.7016 10.0927 29.9055 12.1095 28.4702 13.6525C26.9473 15.2175 25.0014 16 22.6325 16C20.2636 16 18.3219 15.2175 16.8075 13.6525C15.3722 12.1095 14.5761 10.0927 14.5761 8.00002C14.5761 5.90731 15.3722 3.89056 16.8075 2.34753C18.3236 0.782527 20.2653 2.38568e-05 22.6325 2.38568e-05ZM12.6704 2.38568e-05C12.7697 -0.000222655 12.868 0.0196256 12.9593 0.0583277C13.0505 0.0970298 13.1327 0.153768 13.2008 0.22503C13.2747 0.295131 13.3331 0.379475 13.3724 0.472817C13.4118 0.566159 13.4311 0.66649 13.4293 0.767526V2.32502C13.4305 2.42635 13.411 2.5269 13.3717 2.62057C13.3324 2.71424 13.2743 2.79909 13.2008 2.87002C13.1326 2.94095 13.0503 2.9973 12.9591 3.03558C12.8678 3.07385 12.7695 3.09324 12.6704 3.09252H8.31747V15.21C8.31234 15.4073 8.23046 15.5952 8.08876 15.7347C7.94706 15.8743 7.75636 15.955 7.55604 15.96H5.88848C5.78561 15.9613 5.68353 15.942 5.58843 15.9033C5.49333 15.8647 5.40718 15.8074 5.33517 15.735C5.2634 15.6677 5.20635 15.5866 5.16751 15.4967C5.12867 15.4069 5.10885 15.3102 5.10927 15.2125V0.767526C5.10894 0.666644 5.12887 0.566694 5.16791 0.473428C5.20695 0.380161 5.26433 0.295419 5.33675 0.224084C5.40917 0.152749 5.49521 0.0962319 5.5899 0.0577784C5.68459 0.0193249 5.78606 -0.000306366 5.88848 2.38568e-05H12.6704ZM2.98994 2.38568e-05C3.1966 2.38568e-05 3.39478 0.0808822 3.54091 0.224816C3.68704 0.368751 3.76914 0.563972 3.76914 0.767526V2.32502C3.76947 2.4259 3.74956 2.52585 3.71052 2.61912C3.67148 2.71239 3.61408 2.79713 3.54166 2.86846C3.46923 2.9398 3.38322 2.99631 3.28853 3.03477C3.19384 3.07322 3.09236 3.09285 2.98994 3.09252H0.761458C0.66223 3.09354 0.563857 3.0743 0.472557 3.036C0.381257 2.99771 0.299003 2.94119 0.230983 2.87002C0.1575 2.79909 0.0993879 2.71424 0.0601268 2.62057C0.0208657 2.5269 0.00127962 2.42635 0.00256032 2.32502V0.767526C0.000729162 0.66649 0.020064 0.566159 0.0593677 0.472817C0.0986714 0.379475 0.15709 0.295131 0.230983 0.22503C0.298877 0.153529 0.381051 0.096621 0.47234 0.0579004C0.563629 0.0191799 0.662067 -0.000521917 0.761458 2.38568e-05H2.98994Z" fill="white"/>
</g>
<defs>
<clipPath id="clip0_3007_14640">
<rect width="111" height="16" fill="white"/>
</clipPath>
</defs>
</svg>
