<svg width="20" height="20" viewBox="0 0 20 20" fill="none" xmlns="http://www.w3.org/2000/svg">
<path d="M9.05356 6.33203L6.86802 2.72764C6.80943 2.5864 6.65708 2.5 6.49302 2.5H2.96949C2.5901 2.5 2.36803 2.92715 2.5857 3.2377L5.84644 7.89297C6.71568 7.08203 7.8231 6.52246 9.05356 6.33203ZM9.99985 7.1875C7.15074 7.1875 4.84361 9.49463 4.84361 12.3438C4.84361 15.1929 7.1522 17.5 9.99985 17.5C12.8475 17.5 15.1561 15.1929 15.1561 12.3438C15.1561 9.49463 12.8504 7.1875 9.99985 7.1875ZM12.7098 11.7959L11.6 12.8799L11.8601 14.4106C11.9077 14.6816 11.6184 14.894 11.3728 14.7622L9.99941 14.0409L8.62583 14.7607C8.38047 14.8926 8.09116 14.6802 8.13862 14.4092L8.39863 12.8784L7.28887 11.7944C7.08775 11.5996 7.202 11.2598 7.47739 11.2188L9.01196 10.9954L9.69809 9.60449C9.75669 9.47998 9.87754 9.41772 9.99839 9.41772C10.1192 9.41772 10.2401 9.48145 10.2987 9.60449L10.9872 10.9961L12.5217 11.2195C12.8006 11.2598 12.912 11.5996 12.7098 11.7959ZM17.0047 2.5H13.5067C13.342 2.5 13.1894 2.5864 13.1047 2.72764L10.9438 6.30479C12.1743 6.49521 13.284 7.05537 14.1518 7.86865L17.4125 3.21338C17.6317 2.92715 17.409 2.5 17.0047 2.5Z" fill="#9D9D9D"/>
</svg>
