<svg width="20" height="20" viewBox="0 0 20 20" fill="none" xmlns="http://www.w3.org/2000/svg">
<path d="M17.7778 2.5C19.0035 2.5 20 3.61914 20 5V15C20 16.3789 19.0035 17.5 17.7778 17.5H2.22222C0.994792 17.5 0 16.3789 0 15V5C0 3.61914 0.994792 2.5 2.22222 2.5H17.7778ZM9.44444 7.5C9.13889 7.5 8.88889 7.78125 8.88889 8.125C8.88889 8.46875 9.13889 8.75 9.44444 8.75H17.2222C17.5278 8.75 17.7778 8.46875 17.7778 8.125C17.7778 7.78125 17.5278 7.5 17.2222 7.5H9.44444ZM9.44444 12.5H17.2222C17.5278 12.5 17.7778 12.2188 17.7778 11.875C17.7778 11.5312 17.5278 11.25 17.2222 11.25H9.44444C9.13889 11.25 8.88889 11.5312 8.88889 11.875C8.88889 12.2188 9.13889 12.5 9.44444 12.5ZM5.69792 6.25C5.69792 5.81641 5.38542 5.46484 4.96875 5.46484C4.61458 5.46484 4.30208 5.81641 4.30208 6.25V6.48438C4.10764 6.53125 3.89236 6.59766 3.75 6.68359C3.23125 6.94922 2.78021 7.44141 2.67049 8.15625C2.60903 8.55469 2.64167 8.94141 2.78889 9.28906C2.93299 9.63281 3.15972 9.875 3.38993 10.0508C3.79167 10.3594 4.32292 10.5391 4.72917 10.6758L4.80556 10.6992C5.29167 10.8672 5.61806 10.9883 5.82292 11.1562C5.90972 11.2266 5.94097 11.2813 5.95139 11.3164C5.96528 11.3477 5.98611 11.418 5.96181 11.5742C5.94097 11.7109 5.875 11.8281 5.68403 11.918C5.47222 12.0195 5.12847 12.0703 4.68403 11.9922C4.47569 11.9531 4.10417 11.8125 3.77431 11.6875C3.69792 11.6562 3.62153 11.6289 3.55208 11.6016C3.18889 11.4648 2.79549 11.6875 2.67431 12.0977C2.55312 12.5078 2.75 12.9492 3.11389 13.0508C3.1559 13.1016 3.20799 13.1211 3.26771 13.1445C3.51042 13.25 3.97222 13.4141 4.30208 13.5V13.75C4.30208 14.1836 4.61458 14.5352 4.96875 14.5352C5.38542 14.5352 5.69792 14.1836 5.69792 13.75V13.5352C5.88195 13.4961 6.0625 13.4023 6.22917 13.3555C6.77778 13.0938 7.21528 12.5859 7.32986 11.8438C7.39236 11.4375 7.36458 11.0469 7.2257 10.6914C7.09028 10.3398 6.87153 10.082 6.63889 9.89453C6.21875 9.54688 5.65625 9.35938 5.23611 9.21484L5.17708 9.20703C4.71528 9.03906 4.38194 8.92188 4.17014 8.75781C4.07986 8.6875 4.05208 8.64062 4.04514 8.62109C4.03819 8.60547 4.01736 8.55859 4.03819 8.42578C4.05208 8.34766 4.10417 8.21875 4.32292 8.10938C4.51736 7.99609 4.89236 7.93359 5.31597 7.97266C5.46875 8.03516 5.9375 8.13672 6.07292 8.17578C6.44097 8.28906 6.82292 8.03906 6.92014 7.62109C7.02083 7.20703 6.79861 6.77734 6.42708 6.66797C6.27431 6.62109 5.92708 6.54297 5.69792 6.49609V6.25Z" fill="#3A6959"/>
</svg>
