<svg width="20" height="20" viewBox="0 0 20 20" fill="none" xmlns="http://www.w3.org/2000/svg">
<path d="M8.1368 1.85231C4.3793 2.71323 1.67847 6.07189 1.67847 9.97731C1.67847 10.5841 1.76847 11.3221 1.91264 11.9565C2.03514 12.4927 2.62596 12.7627 3.11096 12.5033C3.4493 12.3225 4.41179 11.8363 5.79346 11.1491C5.81179 11.1397 8.66512 9.71298 8.71012 9.69081C8.99429 9.55031 9.17847 9.25339 9.17847 8.93564C9.17847 8.88314 9.15846 3.20498 9.15263 2.65964C9.1468 2.12781 8.65513 1.73356 8.1368 1.85231ZM11.8868 1.85231C11.3693 1.73339 10.8785 2.12856 10.871 2.65964C10.8635 3.24814 10.8451 8.09606 10.8451 8.98773C10.8485 9.31839 10.8801 9.50306 11.3401 9.74298C11.3985 9.77589 14.0201 11.039 14.5693 11.3055C14.6843 11.3614 16.3885 12.2325 16.8868 12.5033C17.371 12.7666 17.9876 12.494 18.111 11.9565C18.2576 11.3179 18.3451 10.5915 18.3451 9.97731C18.3451 6.07356 15.6426 2.71489 11.8868 1.85231ZM7.50514 3.79873C7.5118 5.34106 7.51013 7.78189 7.5118 8.44089C6.9018 8.74423 4.71515 9.82273 3.36848 10.4989C3.35515 10.3325 3.34513 10.1251 3.34513 9.97731C3.34513 7.24373 4.9843 4.85814 7.50514 3.79873ZM12.526 3.80198C15.0068 4.79731 16.6785 7.24064 16.6785 9.97731C16.6785 10.1271 16.676 10.318 16.6626 10.4841C16.2985 10.2998 16.0018 10.154 15.5326 9.92523C15.4226 9.87173 12.9351 8.67373 12.5118 8.46689C12.5135 7.39273 12.5193 5.19114 12.526 3.80198ZM9.64681 11.0971C9.60181 11.1195 3.86014 13.9463 3.78764 13.9877C3.34097 14.2431 3.22847 14.8387 3.55347 15.2377C5.12597 17.1691 7.47263 18.3106 10.0118 18.3106C12.5593 18.3106 14.9243 17.1541 16.496 15.2116C16.826 14.8045 16.6985 14.2077 16.236 13.9616C16.1235 13.9019 10.4218 11.1194 10.3768 11.0971C10.1451 10.9841 9.87848 10.9832 9.64681 11.0971ZM10.0118 12.7638C10.5385 13.0213 13.1026 14.2705 14.471 14.9417C13.2143 16.056 11.6576 16.644 10.0118 16.644C8.36513 16.644 6.80931 16.0546 5.57681 14.9501C6.91264 14.2906 9.4793 13.0265 10.0118 12.7638Z" fill="#3A6959"/>
</svg>
