<svg width="16" height="16" viewBox="0 0 16 16" fill="none" xmlns="http://www.w3.org/2000/svg">
<path d="M9.33976 2.63558C9.33976 1.89891 8.74283 1.30225 8.00643 1.30225C7.27003 1.30225 6.6731 1.89891 6.6731 2.63558C6.6731 3.37224 7.27003 3.9689 8.00643 3.9689C8.74283 3.9689 9.33976 3.37224 9.33976 2.63558ZM9.33976 7.96889C9.33976 7.23223 8.74283 6.63556 8.00643 6.63556C7.27003 6.63556 6.6731 7.23223 6.6731 7.96889C6.6731 8.70556 7.27003 9.30222 8.00643 9.30222C8.74283 9.30222 9.33976 8.70556 9.33976 7.96889ZM9.33976 13.3022C9.33976 12.5655 8.74283 11.9689 8.00643 11.9689C7.27003 11.9689 6.6731 12.5655 6.6731 13.3022C6.6731 14.0389 7.27003 14.6355 8.00643 14.6355C8.74283 14.6355 9.33976 14.0389 9.33976 13.3022Z" fill="white"/>
</svg>
