<svg width="13" height="15" viewBox="0 0 13 15" fill="none" xmlns="http://www.w3.org/2000/svg">
<path d="M11.9059 1.03726e-05C11.9993 -0.00022131 12.0917 0.018433 12.1775 0.0548071C12.2632 0.0911811 12.3405 0.144506 12.4045 0.211482C12.4739 0.277366 12.5288 0.356637 12.5658 0.444364C12.6027 0.532091 12.6209 0.626387 12.6192 0.721345V2.18515C12.6204 2.28039 12.602 2.37489 12.5651 2.46292C12.5282 2.55096 12.4735 2.6307 12.4045 2.69737C12.3404 2.76403 12.263 2.81699 12.1772 2.85297C12.0915 2.88894 11.9991 2.90716 11.9059 2.90649H7.81486V14.2951C7.81003 14.4805 7.73308 14.6571 7.5999 14.7882C7.46672 14.9194 7.2875 14.9952 7.09922 15H5.53198C5.43529 15.0012 5.33935 14.983 5.24997 14.9467C5.16059 14.9103 5.07963 14.8565 5.01195 14.7885C4.9445 14.7252 4.89088 14.649 4.85437 14.5645C4.81787 14.4801 4.79924 14.3892 4.79964 14.2974V0.721345C4.79933 0.626531 4.81806 0.532594 4.85475 0.444938C4.89144 0.357281 4.94537 0.277636 5.01344 0.210593C5.0815 0.143549 5.16236 0.0904312 5.25136 0.0542908C5.34035 0.0181504 5.43572 -0.000299986 5.53198 1.03726e-05H11.9059ZM2.80779 1.03726e-05C3.00202 1.03726e-05 3.18828 0.0760048 3.32562 0.211281C3.46296 0.346557 3.54012 0.530035 3.54012 0.721345V2.18515C3.54043 2.27997 3.52171 2.3739 3.48502 2.46156C3.44833 2.54921 3.39439 2.62886 3.32632 2.6959C3.25826 2.76295 3.17741 2.81607 3.08842 2.85221C2.99942 2.88835 2.90405 2.9068 2.80779 2.90649H0.71336C0.620101 2.90744 0.527645 2.88936 0.441837 2.85337C0.356029 2.81738 0.278723 2.76425 0.214794 2.69737C0.145732 2.6307 0.0911149 2.55096 0.0542154 2.46292C0.017316 2.37489 -0.0010919 2.28039 0.00011176 2.18515V0.721345C-0.00160925 0.626387 0.0165625 0.532091 0.053502 0.444364C0.0904415 0.356637 0.145346 0.277366 0.214794 0.211482C0.278604 0.144282 0.355835 0.0907969 0.441633 0.0544055C0.527431 0.0180142 0.619947 -0.000502571 0.71336 1.03726e-05H2.80779Z" fill="#09442F"/>
</svg>
